/vscmnt/brussel_pixiu_data/_data_brussel/112/vsc11236/PredSimResults/SUBJ04opt3D/worker_14.mot
version=1
nRows=9
nColumns=50
inDegrees=yes
endheader
                time	         pelvis_tilt	         pelvis_list	     pelvis_rotation	           pelvis_tx	           pelvis_ty	           pelvis_tz	       hip_flexion_r	     hip_adduction_r	      hip_rotation_r	        knee_angle_r	       ankle_angle_r	         mtp_angle_r	       hip_flexion_l	     hip_adduction_l	      hip_rotation_l	        knee_angle_l	       ankle_angle_l	         mtp_angle_l	    lumbar_extension	      lumbar_bending	     lumbar_rotation	 ercspn_r/activation	 intobl_r/activation	 extobl_r/activation	    abd_r/activation	    add_r/activation	hamstrings_r/activation	bifemsh_r/activation	glut_max_r/activation	iliopsoas_r/activation	rect_fem_r/activation	  vasti_r/activation	gastroc_r/activation	 soleus_r/activation	tib_ant_r/activation	 ercspn_l/activation	 intobl_l/activation	 extobl_l/activation	    abd_l/activation	    add_l/activation	hamstrings_l/activation	bifemsh_l/activation	glut_max_l/activation	iliopsoas_l/activation	rect_fem_l/activation	  vasti_l/activation	gastroc_l/activation	 soleus_l/activation	tib_ant_l/activation	
          3.00000003	        -18.29532199	          5.35184255	         -7.76138831	          5.70000006	          0.85395634	          0.01547638	          4.21553325	         -2.50221015	          8.72438025	        -19.78523654	          6.09815660	         40.22409748	         43.68710328	         -0.94336787	          2.77149823	         -8.07523719	          0.36279973	          0.24152460	         -1.40821111	         -2.13324299	          0.67127959	          0.19957288	          0.23695924	          0.00999999	          0.09982933	          0.04213988	          0.13278723	          0.54971161	          0.09242527	          0.46931114	          0.01845903	          0.00999999	          0.30632536	          0.33290320	          0.02898130	          0.28342658	          0.04515728	          0.00999999	          0.04083735	          0.26311574	          0.08925839	          0.33415024	          0.00999999	          0.12260232	          0.05017414	          0.01609862	          0.12057581	          0.00999999	          0.37488972	
          3.02000003	        -17.77248253	          4.96195414	         -8.35639070	          5.74754429	          0.85248896	          0.01370631	          3.54179682	         -2.35217436	          7.46507637	        -24.49248843	          2.07727232	         43.38712502	         43.46560477	         -0.44690898	          3.24419105	        -14.34131869	          0.79686823	          0.17899514	         -0.75008209	         -1.75983156	          0.67775795	          0.22552747	          0.29075991	          0.00999999	          0.07487199	          0.03160491	          0.09959043	          0.41228371	          0.06931896	          0.74419562	          0.01384427	          0.00999999	          0.22974402	          0.24967740	          0.02173597	          0.21256993	          0.03386796	          0.00999999	          0.12045921	          0.38293972	          0.09978293	          0.25061268	          0.22408861	          0.09195174	          0.03763060	          0.01207396	          0.09043186	          0.00999999	          0.41773449	
          3.04000003	        -17.14994828	          4.69216766	         -8.92819426	          5.79483227	          0.85109460	          0.01135878	          4.81593622	         -2.36357005	          5.96390262	        -32.52111768	         -2.33282474	         43.40821477	         42.91425903	          0.22011891	          4.00848841	        -20.44075184	          1.59569180	          0.14509183	         -0.20858848	         -1.37883970	          0.42284254	          0.32406086	          0.21806993	          0.00999999	          0.05615399	          0.02370368	          0.07469282	          0.30921278	          0.05198922	          0.81137060	          0.01038320	          0.00999999	          0.17230801	          0.18725805	          0.01630198	          0.18532725	          0.02540097	          0.00999999	          0.27313601	          0.49425039	          0.07483720	          0.18795951	          0.60796474	          0.06896381	          0.02822295	          0.00999999	          0.06782390	          0.00999999	          0.31330087	
          3.06000003	        -16.43987810	          4.43330226	         -9.44326480	          5.84077648	          0.85091445	          0.00856653	          7.90394024	         -2.74808130	          3.54601883	        -42.57060238	         -9.02685047	         40.19954508	         42.28734292	          0.89460903	          4.31355296	        -26.87465249	          5.32891039	          1.55338722	          0.09080460	         -0.89731040	         -0.03351384	          0.32480857	          0.16355245	          0.00999999	          0.04211550	          0.01777776	          0.05601961	          0.23190959	          0.03899191	          0.60852795	          0.25416347	          0.00999999	          0.12923101	          0.14044354	          0.01222648	          0.13899544	          0.01905073	          0.00999999	          0.47540847	          0.37068779	          0.09181958	          0.14096963	          0.45698124	          0.05172285	          0.02116721	          0.27185785	          0.14641088	          0.24436325	          0.23497565	
          3.08000003	        -15.77674108	          4.14364254	         -9.90444506	          5.88510819	          0.85356262	          0.00569641	         11.97654668	         -3.89717022	          0.19601750	        -51.88775013	        -17.94940026	         32.98058555	         40.18588879	          1.41372840	          4.42655757	        -30.28160050	          8.26251056	          4.74142788	          0.24476520	         -0.29472169	         -0.57787501	          0.28779114	          0.12511969	          0.16966511	          0.03158662	          0.01333332	          0.04201471	          0.34703773	          0.02924393	          0.45639596	          0.49508309	          0.00999999	          0.09692326	          0.10533265	          0.07814397	          0.10424658	          0.01428804	          0.00999999	          0.53267089	          0.27801584	          0.11551925	          0.10572722	          0.34273593	          0.03879214	          0.01587541	          0.41566988	          0.23281508	          0.37520499	          0.17623174	
          3.10000003	        -15.20325543	          3.80962823	        -10.32262689	          5.92740615	          0.85970437	          0.00298455	         16.23461544	         -5.60941582	         -3.48890433	        -59.08542225	        -21.95999569	         25.46261787	         36.77272949	          1.75584682	          4.45454879	        -30.70598477	          9.69075926	          8.42609072	          0.20736773	          0.42295980	         -1.11107363	          0.22694014	          0.24364198	          0.16350977	          0.02368997	          0.00999999	          0.03151103	          0.52459730	          0.02193295	          0.34229697	          0.58601619	          0.00999999	          0.09553297	          0.07899949	          0.17764103	          0.07818493	          0.01071603	          0.00999999	          0.44626528	          0.20851188	          0.12465432	          0.07929542	          0.25705195	          0.02909411	          0.01190656	          0.31175241	          0.31958614	          0.47174813	          0.13217380	
          3.12000003	        -14.69414907	          3.25902035	        -10.78886470	          5.96749893	          0.86880980	          0.00038048	         20.63207435	         -7.35724309	         -7.21068866	        -64.18677430	        -22.61229430	         19.70864461	         32.89884520	          1.78976804	          4.46241772	        -29.68128608	          9.49307531	         12.32863639	         -0.13288402	          1.47743425	         -1.54591357	          0.26672053	          0.36395268	          0.14207304	          0.01776747	          0.00999999	          0.02363327	          0.69254651	          0.01644971	          0.26758487	          0.51568532	          0.00999999	          0.10865138	          0.05924962	          0.25041343	          0.05863870	          0.00999999	          0.00999999	          0.33469896	          0.15638391	          0.12498650	          0.05947156	          0.19278896	          0.02182058	          0.00999999	          0.23381431	          0.38667871	          0.49091547	          0.09913035	
          3.14000003	        -14.19265215	          2.46746958	        -11.37612192	          6.00591076	          0.87984163	         -0.00230327	         25.11746651	         -8.89160910	        -10.80065173	        -67.62293402	        -22.12262122	         15.23128340	         28.85226919	          1.50656258	          4.25034238	        -27.91835337	          7.91242006	         16.49895909	         -0.78215332	          2.94729723	         -1.80012710	          0.32512505	          0.39512987	          0.17403802	          0.01332561	          0.00999999	          0.01772496	          0.77324628	          0.01233728	          0.23846314	          0.38676399	          0.00999999	          0.10026194	          0.04443721	          0.22947857	          0.04397902	          0.00999999	          0.00999999	          0.25102422	          0.11728793	          0.09373987	          0.04460367	          0.14459172	          0.01636543	          0.00999999	          0.17536073	          0.42197232	          0.46042014	          0.07434776	
          3.16000003	        -13.65297143	          1.38692266	        -12.05326350	          6.04324188	          0.89207691	         -0.00524700	         29.45012863	         -9.98486393	        -14.22846308	        -69.64628402	        -21.54372537	         11.76248637	         24.94695305	          0.94088787	          3.73312749	        -26.21035157	          5.28609393	         20.90583778	         -1.73155428	          4.90150080	         -1.82389327	          0.33606756	          0.29634740	          0.14158630	          0.00999999	          0.03721215	          0.01329372	          0.67022508	          0.00999999	          0.20809695	          0.29007299	          0.00999999	          0.07769870	          0.03332791	          0.17210893	          0.03298427	          0.00999999	          0.00999999	          0.18826816	          0.08796595	          0.08146774	          0.59054444	          0.10844379	          0.01227408	          0.00999999	          0.13152055	          0.42430055	          0.35609667	          0.05576082	
